<?xml version="1.0" encoding="UTF-8"?>
<svg width="20px" height="20px" viewBox="0 0 20 20" version="1.1" xmlns="http://www.w3.org/2000/svg" xmlns:xlink="http://www.w3.org/1999/xlink">
    <!-- Generator: Sketch 52.5 (67469) - http://www.bohemiancoding.com/sketch -->
    <title>icon/转为操作模式</title>
    <desc>Created with Sketch.</desc>
    <g id="icon/转为操作模式" stroke="none" stroke-width="1" fill="none" fill-rule="evenodd">
        <path d="M6,6 L6,4 C6,3.44771525 6.44771525,3 7,3 C7.55228475,3 8,3.44771525 8,4 L8,7 C8,7.55228475 7.55228475,8 7,8 L4,8 C3.44771525,8 3,7.55228475 3,7 C3,6.44771525 3.44771525,6 4,6 L6,6 Z M6,14 L4,14 C3.44771525,14 3,13.5522847 3,13 C3,12.4477153 3.44771525,12 4,12 L7,12 C7.55228475,12 8,12.4477153 8,13 L8,16 C8,16.5522847 7.55228475,17 7,17 C6.44771525,17 6,16.5522847 6,16 L6,14 Z M14,6 L16,6 C16.5522847,6 17,6.44771525 17,7 C17,7.55228475 16.5522847,8 16,8 L13,8 C12.4477153,8 12,7.55228475 12,7 L12,4 C12,3.44771525 12.4477153,3 13,3 C13.5522847,3 14,3.44771525 14,4 L14,6 Z M14,14 L14,16 C14,16.5522847 13.5522847,17 13,17 C12.4477153,17 12,16.5522847 12,16 L12,13 C12,12.4477153 12.4477153,12 13,12 L16,12 C16.5522847,12 17,12.4477153 17,13 C17,13.5522847 16.5522847,14 16,14 L14,14 Z" id="适合屏幕" fill="#919EAB"></path>
    </g>
</svg>