<?xml version="1.0" encoding="UTF-8"?>
<svg width="20px" height="20px" viewBox="0 0 20 20" version="1.1" xmlns="http://www.w3.org/2000/svg" xmlns:xlink="http://www.w3.org/1999/xlink">
    <!-- Generator: Sketch 52.5 (67469) - http://www.bohemiancoding.com/sketch -->
    <title>icon/转为全屏模式</title>
    <desc>Created with Sketch.</desc>
    <g id="icon/转为全屏模式" stroke="none" stroke-width="1" fill="none" fill-rule="evenodd">
        <path d="M5,5 L5,7 C5,7.55228475 4.55228475,8 4,8 C3.44771525,8 3,7.55228475 3,7 L3,4 C3,3.44771525 3.44771525,3 4,3 L7,3 C7.55228475,3 8,3.44771525 8,4 C8,4.55228475 7.55228475,5 7,5 L5,5 Z M5,15 L7,15 C7.55228475,15 8,15.4477153 8,16 C8,16.5522847 7.55228475,17 7,17 L4,17 C3.44771525,17 3,16.5522847 3,16 L3,13 C3,12.4477153 3.44771525,12 4,12 C4.55228475,12 5,12.4477153 5,13 L5,15 Z M15,5 L13,5 C12.4477153,5 12,4.55228475 12,4 C12,3.44771525 12.4477153,3 13,3 L16,3 C16.5522847,3 17,3.44771525 17,4 L17,7 C17,7.55228475 16.5522847,8 16,8 C15.4477153,8 15,7.55228475 15,7 L15,5 Z M15,15 L15,13 C15,12.4477153 15.4477153,12 16,12 C16.5522847,12 17,12.4477153 17,13 L17,16 C17,16.5522847 16.5522847,17 16,17 L13,17 C12.4477153,17 12,16.5522847 12,16 C12,15.4477153 12.4477153,15 13,15 L15,15 Z" id="适合屏幕" fill="#919EAB"></path>
    </g>
</svg>